# AST/ASF file generated using VICON BodyLanguage
# -----------------------------------------------
:version 1.10
:name VICON
:units
  mass 1.0
  length 0.45
  angle deg
:documentation
   .ast/.asf automatically generated from VICON data using
   VICON BodyBuilder and BodyLanguage model FoxedUp or BRILLIANT.MOD
:root
   order TX TY TZ RX RY RZ
   axis XYZ
   position 0 0 0  
   orientation 0 -0 0 
:bonedata
  begin
     id 1 
     name lhipjoint
     direction 0.515797 -0.759363 0.396637 
     length 2.47888 
     axis 0 -0 0  XYZ
  end
  begin
     id 2 
     name lfemur
     direction 0.34202 -0.939693 0  
     length 6.81885  
     axis 0 -0 20  XYZ
    dof rx ry rz
    limits (-160.0 20.0)
           (-70.0 70.0)
           (-60.0 70.0)
  end
  begin
     id 3 
     name ltibia
     direction 0.342037 -0.939687 0   
     length 7.89258   
     axis 0 -0 20   XYZ
    dof rx
    limits (-10.0 170.0)
  end
  begin
     id 4 
     name lfoot
     direction 0.173497 -0.476678 0.861787   
     length 2.51543   
     axis -90 -1.13533e-015 20   XYZ
    dof rx rz
    limits (-45.0 90.0)
           (-70.0 20.0)
  end
  begin
     id 5 
     name ltoes
     direction 1.53564e-011 -4.21897e-011 1   
     length 1.21388   
     axis -90 -1.13533e-015 20   XYZ
    dof rx
    limits (-90.0 20.0)
  end
  begin
     id 6 
     name rhipjoint
     direction -0.489454 -0.772941 0.403729   
     length 2.43534  
     axis 0 -0 0  XYZ 
  end
  begin
     id 7 
     name rfemur
     direction -0.34202 -0.939693 0   
     length 7.10357   
     axis 0 -0 -20   XYZ
    dof rx ry rz
    limits (-160.0 20.0)
           (-70.0 70.0)
           (-70.0 60.0)
  end
  begin
     id 8 
     name rtibia
     direction -0.34202 -0.939693 0   
     length 9.16127   
     axis 0 -0 -20   XYZ
    dof rx
    limits (-10.0 170.0)
 end
 begin
     id 9 
     name rfoot
     direction -0.270974 -0.748671 0.605033   
     length 1.74894  
     axis -90 1.13533e-015 -20   XYZ
    dof rx rz
    limits (-45.0 90.0)
           (-20.0 70.0)
  end
  begin
     id 10 
     name rtoes
     direction -1.53557e-011 -4.21759e-011 1   
     length 0.787585   
     axis -90 1.13533e-015 -20   XYZ
    dof rx
    limits (-90.0 20.0)
  end
  begin
     id 11 
     name lowerback
     direction -0.0140249 0.999561 0.0260968   
     length 2.16963   
     axis 0 -0 0   XYZ
    dof rx ry rz
    limits (-20.0 45.0)
           (-30.0 30.0)
           (-30.0 30.0)
  end
  begin
     id 12 
     name upperback
     direction 0.00860018 0.999959 -0.002711   
     length 2.1726   
     axis 0 -0 0   XYZ
    dof rx ry rz
    limits (-20.0 45.0)
           (-30.0 30.0)
           (-30.0 30.0)
  end
  begin
     id 13 
     name thorax
     direction 0.015211 0.999782 -0.0143191   
     length 2.17061   
     axis 0 -0 0   XYZ
    dof rx ry rz
    limits (-20.0 45.0)
           (-30.0 30.0)
           (-30.0 30.0)
  end
  begin
     id 14 
     name lowerneck
     direction -0.0140143 0.999447 0.030145   
     length 2.26749   
     axis 0 -0 0   XYZ
    dof rx ry rz
    limits (-20.0 45.0)
           (-30.0 30.0)
           (-30.0 30.0)
  end
  begin
     id 15 
     name upperneck
     direction 0.118062 0.961438 -0.248392   
     length 2.22728   
     axis 0 -0 0   XYZ
    dof rx ry rz
    limits (-20.0 45.0)
           (-30.0 30.0)
           (-30.0 30.0)
  end
  begin
     id 16
     name head
     direction 0.0431885 0.9954 -0.085514  
     length 2.28786  
     axis 0 -0 0   XYZ
    dof rx ry rz
    limits (-20.0 45.0)
           (-30.0 30.0)
           (-30.0 30.0)
  end
  begin
     id 17 
     name lclavicle
     direction 0.912126 0.409548 0.0172323  
     length 4.31571  
     axis 0 -0 0   XYZ
    dof ry rz
    limits (-20.0 10.0)
           (0.0 20.0)
  end
  begin
     id 18 
     name lhumerus
     direction 1 -4.48977e-011 1.93091e-027   
     length 5.13658   
     axis 180 -30 -90   XYZ
    dof rx ry rz
    limits (-60.0 90.0)
           (-90.0 90.0)
           (-90.0 90.0)
  end
  begin
     id 19
     name lradius
     direction 1 -4.48916e-011 6.84018e-027   
     length 3.22473   
     axis 180 -30 -90   XYZ
    dof rx
    limits (-10.0 170.0)
  end
  begin
     id 20
     name lwrist
     direction 1 -4.48987e-011 7.01981e-027   
     length 1.61236   
     axis -4.37994e-015 90 90   XYZ
    dof ry
    limits (-180.0 0.0)
 end
  begin
     id 21 
     name lhand
     direction 1 -4.49037e-011 1.40335e-026   
     length 0.936406   
     axis -8.96029e-015 90 90   XYZ
    dof rx rz
    limits (-90.0 90.0)
           (-45.0 45.0)
  end
  begin
     id 22 
     name lfingers
     direction 1 -4.48886e-011 2.8104e-026   
     length 0.754955   
     axis -1.79203e-014 90 90   XYZ
    dof rx
    limits (0.0 90.0)
  end
  begin
     id 23
     name lthumb
     direction 0.707107 -6.34937e-011 0.707107   
     length 1.08397   
     axis -90 45 -4.48555e-014   XYZ
    dof rx rz
    limits (-45.0 45.0)
           (-45.0 45.0)
  end
  begin
     id 24 
     name rclavicle
     direction -0.947962 0.317997 0.0156638   
     length 4.86918  
     axis 0 -0 0   XYZ 
    dof ry rz
    limits (-10.0 20.0)
           (-20.0 0.0)
  end
  begin
     id 25 
     name rhumerus
     direction -1 -4.48951e-011 2.80534e-018  
     length 5.60911   
     axis 180 30 90   XYZ
    dof rx ry rz
    limits (-90.0 60.0)
           (-90.0 90.0)
           (-90.0 90.0)
  end
  begin
     id 26 
     name rradius
     direction -1 -4.4898e-011 2.11315e-027   
     length 3.38704   
     axis 180 30 90   XYZ
    dof rx
    limits (-10.0 170.0)
  end
  begin
     id 27 
     name rwrist
     direction -1 -4.48933e-011 7.02314e-027   
     length 1.69352   
     axis -4.37994e-015 -90 -90   XYZ
    dof ry
    limits (-180.0 0.0)
  end
  begin
     id 28
     name rhand
     direction -1 -4.48937e-011 1.40458e-026   
     length 0.755878   
     axis -8.96029e-015 -90 -90   XYZ
    dof rx rz
    limits (-90.0 90.0)
           (-45.0 45.0)
  end
  begin
     id 29
     name rfingers
     direction -1 -4.4901e-011 2.80737e-026   
     length 0.609409   
     axis -1.79203e-014 -90 -90   XYZ
    dof rx
    limits (0.0 90.0)
  end
  begin
     id 30
     name rthumb
     direction -0.707107 -6.34968e-011 0.707107   
     length 0.874992   
     axis -90 -45 4.48555e-014   XYZ
    dof rx rz
    limits (-45.0 45.0)
           (-45.0 45.0)
  end
:hierarchy
  begin
    root lhipjoint rhipjoint lowerback
    lhipjoint lfemur
    lfemur ltibia
    ltibia lfoot
    lfoot ltoes
    rhipjoint rfemur
    rfemur rtibia
    rtibia rfoot
    rfoot rtoes
    lowerback upperback
    upperback thorax
    thorax lowerneck lclavicle rclavicle
    lowerneck upperneck
    upperneck head
    lclavicle lhumerus
    lhumerus lradius
    lradius lwrist
    lwrist lhand lthumb
    lhand lfingers
    rclavicle rhumerus
    rhumerus rradius
    rradius rwrist
    rwrist rhand rthumb
    rhand rfingers
  end

#!OML:ASF C:\ViconDB\ViconDB\414\Spring2016\041811\Spring2016.ASF
:FULLY-SPECIFIED
:DEGREES
93
root 9.24163 21.4802 0.58767 -170.847 -1.79371 -179.86
lowerback 4.80413 -0.0185224 -4.05929
upperback -1.57981 -0.288499 0.193151
thorax -4.3136 -0.0338565 2.50358
lowerneck -11.9805 -4.30531 -13.197
upperneck 14.6403 -8.19989 20.9394
head 7.92257 -3.43376 8.42927
rclavicle 1.61513e-015 1.78906e-015
rhumerus -6.74062 15.8386 -56.2713
rradius 113.033
rwrist -3.63067
rhand -34.1756 -15.0201
rfingers 7.12502
rthumb -7.34909 -44.8725
lclavicle 1.61513e-015 1.78906e-015
lhumerus -3.24847 -4.95206 50.1665
lradius 99.4361
lwrist 0.282482
lhand -38.1784 14.9781
lfingers 7.12502
lthumb -11.2113 44.6586
rfemur -5.53039 -19.5268 17.8748
rtibia 27.9822
rfoot -33.6336 10.6676
rtoes -17.672
lfemur -2.98245 -0.356906 -14.6468
ltibia 19.1096
lfoot 12.9632 7.49715
ltoes -4.88501
94
root 9.23362 21.5693 0.398423 -170.857 -1.70967 -179.741
lowerback 5.08533 -0.0284562 -3.85632
upperback -1.36677 -0.298336 0.108694
thorax -4.25081 -0.0490802 2.30365
lowerneck -12.441 -4.34779 -13.1705
upperneck 14.706 -8.25443 21.0496
head 8.04741 -3.42408 8.45903
rclavicle -7.55382e-015 1.27222e-014
rhumerus -8.27081 15.5066 -57.65
rradius 112.587
rwrist -2.77524
rhand -34.5298 -14.8662
rfingers 7.12502
rthumb -7.69094 -44.7063
lclavicle -7.55382e-015 1.27222e-014
lhumerus -4.13393 -4.62008 51.2515
lradius 99.274
lwrist -0.293095
lhand -37.9011 14.4264
lfingers 7.12502
lthumb -10.9438 44.1212
rfemur -5.85974 -18.9279 18.2574
rtibia 26.8751
rfoot -33.731 10.0735
rtoes -17.5723
lfemur -3.39919 -0.824313 -14.4645
ltibia 18.07
lfoot 12.2061 7.16567
ltoes -5.03289
95
root 9.22982 21.6403 0.211831 -170.84 -1.62249 -179.691
lowerback 5.3732 -0.0342646 -3.90261
upperback -1.14287 -0.317427 0.0950798
thorax -4.17927 -0.0620718 2.31822
lowerneck -12.7948 -4.40069 -13.2979
upperneck 14.6534 -8.2772 21.1946
head 8.11606 -3.40976 8.53122
rclavicle 7.95139e-016 -1.98785e-015
rhumerus -9.76685 15.3325 -58.9323
rradius 111.985
rwrist -1.69115
rhand -35.0805 -15.8518
rfingers 7.12502
rthumb -8.22249 -45.6718
lclavicle 7.95139e-016 -1.98785e-015
lhumerus -5.07558 -4.42286 52.1833
lradius 99.0403
lwrist -0.862603
lhand -37.7281 14.2481
lfingers 7.12502
lthumb -10.777 43.9516
rfemur -6.25596 -18.1816 18.5652
rtibia 25.7154
rfoot -33.7149 9.48944
rtoes -17.4338
lfemur -3.88471 -1.45681 -14.3179
ltibia 16.9956
lfoot 11.4324 6.99817
ltoes -5.20549
96
root 9.22439 21.6926 0.0285875 -170.797 -1.59448 -179.617
lowerback 5.68379 -0.0857304 -3.78682
upperback -0.906555 -0.390939 0.027444
thorax -4.10474 -0.107729 2.19087
lowerneck -13.1747 -4.46972 -13.5254
upperneck 14.5905 -8.35218 21.5273
head 8.21151 -3.41772 8.68633
rclavicle 7.60351e-015 -8.74653e-015
rhumerus -11.3073 15.0686 -60.3799
rradius 111.174
rwrist -0.387256
rhand -35.6086 -16.8142
rfingers 7.12502
rthumb -8.73212 -46.6136
lclavicle 7.60351e-015 -8.74653e-015
lhumerus -5.95904 -4.31105 52.9539
lradius 98.3853
lwrist -1.84812
lhand -37.343 14.299
lfingers 7.12502
lthumb -10.4055 44.0216
rfemur -6.67864 -17.53 18.9138
rtibia 24.4872
rfoot -33.6854 9.06732
rtoes -17.7474
lfemur -4.48379 -2.09207 -14.1043
ltibia 15.9925
lfoot 10.7637 6.85839
ltoes -5.54694
97
root 9.21891 21.7348 -0.152731 -170.713 -1.57198 -179.594
lowerback 5.96854 -0.0899701 -3.79109
upperback -0.672373 -0.406821 0.0295118
thorax -4.02093 -0.121494 2.19811
lowerneck -13.4559 -4.56766 -13.6831
upperneck 14.4275 -8.37511 21.5649
head 8.22689 -3.4112 8.71987
rclavicle -1.3418e-015 1.19271e-015
rhumerus -12.8329 14.6592 -61.6371
rradius 110.427
rwrist -0.852732
rhand -35.3699 -16.9813
rfingers 7.12502
rthumb -8.50172 -46.7901
lclavicle -1.3418e-015 1.19271e-015
lhumerus -6.8489 -4.3177 54.0052
lradius 97.7654
lwrist -1.93717
lhand -37.472 14.4594
lfingers 7.12502
lthumb -10.53 44.1756
rfemur -7.24501 -17.3346 19.1958
rtibia 23.3236
rfoot -33.7619 8.65169
rtoes -18.2451
lfemur -5.15538 -2.9356 -13.9243
ltibia 14.9825
lfoot 10.1312 7.21795
ltoes -5.52144
98
root 9.21708 21.7625 -0.329115 -170.674 -1.6426 -179.546
lowerback 6.3173 -0.115045 -3.69311
upperback -0.418461 -0.450809 -0.0366272
thorax -3.95188 -0.153344 2.0804
lowerneck -13.5845 -4.6401 -13.8485
upperneck 14.1559 -8.41298 21.7783
head 8.19149 -3.4187 8.8153
rclavicle 3.67752e-015 3.18055e-015
rhumerus -14.4046 14.2498 -62.9364
rradius 109.331
rwrist -0.659727
rhand -35.4208 -16.9246
rfingers 7.12502
rthumb -8.55084 -46.7314
lclavicle 3.67752e-015 3.18055e-015
lhumerus -7.60416 -4.37583 54.9476
lradius 96.916
lwrist -1.74823
lhand -37.1895 14.5385
lfingers 7.12502
lthumb -10.2575 44.2684
rfemur -7.84246 -17.2095 19.5297
rtibia 22.2714
rfoot -33.6447 8.3595
rtoes -18.2842
lfemur -5.84586 -3.74001 -13.642
ltibia 13.9725
lfoot 9.54436 7.83358
ltoes -5.61488
99
root 9.21226 21.7733 -0.501358 -170.64 -1.67674 -179.438
lowerback 6.78417 -0.138204 -3.59585
upperback -0.188816 -0.494656 -0.0188306
thorax -3.97395 -0.182248 2.05151
lowerneck -13.6525 -4.67983 -14.0837
upperneck 13.8141 -8.34861 21.9193
head 8.10005 -3.38511 8.90764
rclavicle -8.44835e-015 -1.27222e-014
rhumerus -16.008 13.8103 -64.1979
rradius 108.132
rwrist -0.438835
rhand -35.448 -17.0804
rfingers 7.12502
rthumb -8.57716 -46.8862
lclavicle -8.44835e-015 -1.27222e-014
lhumerus -8.70566 -4.51332 55.9475
lradius 96.2329
lwrist -1.37663
lhand -37.2245 15.1598
lfingers 7.12502
lthumb -10.2912 44.888
rfemur -8.58256 -17.1892 19.9859
rtibia 21.3419
rfoot -33.274 8.37637
rtoes -18.3183
lfemur -6.57451 -4.34252 -13.2608
ltibia 13.0276
lfoot 8.90332 8.58864
ltoes -5.54489
100
root 9.20756 21.7661 -0.669427 -170.562 -1.70119 -179.385
lowerback 7.36615 -0.112797 -3.60121
upperback -0.0365206 -0.487545 0.0225815
thorax -4.1432 -0.179931 2.10135
lowerneck -13.7142 -4.76367 -14.2895
upperneck 13.5196 -8.36589 22.0449
head 8.03772 -3.39071 8.9796
rclavicle -5.86415e-015 -1.74931e-014
rhumerus -17.7655 13.2327 -65.328
rradius 106.873
rwrist -0.033703
rhand -34.9755 -16.8959
rfingers 7.12502
rthumb -8.12115 -46.7198
lclavicle -5.86415e-015 -1.74931e-014
lhumerus -9.65999 -4.76115 56.9782
lradius 95.1072
lwrist -1.20991
lhand -37.2125 15.0347
lfingers 7.12502
lthumb -10.2796 44.7635
rfemur -9.50549 -17.6605 20.4031
rtibia 20.5545
rfoot -33.132 8.24993
rtoes -18.0152
lfemur -7.38238 -5.31933 -12.8986
ltibia 12.1172
lfoot 8.03077 9.84548
ltoes -5.21324
101
root 9.20487 21.737 -0.831493 -170.565 -1.77 -179.181
lowerback 7.97049 -0.17315 -3.35211
upperback 0.226013 -0.579117 -0.0112564
thorax -4.2064 -0.238248 1.94091
lowerneck -13.9004 -4.79844 -14.2428
upperneck 13.2811 -8.32406 21.991
head 7.98399 -3.35741 8.94506
rclavicle -2.08724e-015 5.1684e-015
rhumerus -19.3315 12.721 -66.7361
rradius 105.435
rwrist 0.135136
rhand -34.3697 -16.9914
rfingers 7.12502
rthumb -7.53645 -46.8372
lclavicle -2.08724e-015 5.1684e-015
lhumerus -10.6618 -4.98748 57.631
lradius 94.0597
lwrist -0.927965
lhand -37.277 15.6002
lfingers 7.12502
lthumb -10.3418 45.3259
rfemur -10.4657 -18.1259 21.0395
rtibia 19.9028
rfoot -32.7858 8.20211
rtoes -17.6395
lfemur -8.16741 -5.85963 -12.3407
ltibia 11.2306
lfoot 7.23517 10.9004
ltoes -5.34957
102
root 9.19706 21.6967 -0.99298 -170.521 -1.83091 -179.141
lowerback 8.59802 -0.166506 -3.31097
upperback 0.449175 -0.598087 0.0323943
thorax -4.32504 -0.254458 1.97099
lowerneck -13.8641 -4.8902 -14.6681
upperneck 12.8332 -8.30895 22.2499
head 7.865 -3.35743 9.10795
rclavicle 7.95139e-016 -1.23246e-014
rhumerus -21.0127 12.421 -67.8962
rradius 103.969
rwrist -0.217882
rhand -34.5312 -17.1197
rfingers 7.12502
rthumb -7.69235 -46.9598
lclavicle 7.95139e-016 -1.23246e-014
lhumerus -11.7089 -5.37904 58.549
lradius 92.8998
lwrist -0.848486
lhand -37.3393 16.2817
lfingers 7.12502
lthumb -10.402 46.0044
rfemur -11.5361 -18.796 21.4818
rtibia 19.381
rfoot -32.6722 8.03153
rtoes -17.5011
lfemur -8.98599 -6.50388 -11.9463
ltibia 10.3472
lfoot 6.46411 12.052
ltoes -5.44527
103
root 9.19197 21.6401 -1.15029 -170.473 -1.74702 -179.023
lowerback 9.29806 -0.110127 -3.28184
upperback 0.673922 -0.556108 0.102731
thorax -4.48502 -0.240655 2.02915
lowerneck -14.0615 -4.96371 -14.7514
upperneck 12.6263 -8.2692 22.1283
head 7.82557 -3.32861 9.07381
rclavicle -7.55382e-015 -9.54166e-015
rhumerus -22.5709 11.8613 -68.9124
rradius 102.249
rwrist -0.038586
rhand -34.2699 -16.6003
rfingers 7.12502
rthumb -7.44009 -46.4495
lclavicle -7.55382e-015 -9.54166e-015
lhumerus -12.8639 -5.52096 59.6561
lradius 91.5911
lwrist -1.12986
lhand -37.4719 16.5967
lfingers 7.12502
lthumb -10.5299 46.313
rfemur -12.7493 -19.2452 22.0013
rtibia 18.9829
rfoot -32.5587 7.91121
rtoes -17.1451
lfemur -9.78696 -6.57942 -11.5354
ltibia 9.47108
lfoot 5.82187 12.903
ltoes -5.70957
